<svg width="1134" height="541" viewBox="0 0 1134 541" fill="none" xmlns="http://www.w3.org/2000/svg">
<circle cx="7" cy="7" r="7" fill="#D9D9D9" fill-opacity="0.1"/>
<circle cx="7" cy="38" r="7" fill="#D9D9D9" fill-opacity="0.1"/>
<circle cx="7" cy="69" r="7" fill="#D9D9D9" fill-opacity="0.1"/>
<circle cx="7" cy="100" r="7" fill="#D9D9D9" fill-opacity="0.1"/>
<circle cx="7" cy="131" r="7" fill="#D9D9D9" fill-opacity="0.1"/>
<circle cx="7" cy="162" r="7" fill="#D9D9D9" fill-opacity="0.1"/>
<circle cx="7" cy="193" r="7" fill="#D9D9D9" fill-opacity="0.1"/>
<circle cx="7" cy="224" r="7" fill="#D9D9D9" fill-opacity="0.1"/>
<circle cx="7" cy="255" r="7" fill="#D9D9D9" fill-opacity="0.1"/>
<circle cx="7" cy="286" r="7" fill="#D9D9D9" fill-opacity="0.1"/>
<circle cx="7" cy="317" r="7" fill="#D9D9D9" fill-opacity="0.1"/>
<circle cx="7" cy="348" r="7" fill="#D9D9D9" fill-opacity="0.1"/>
<circle cx="7" cy="379" r="7" fill="#D9D9D9" fill-opacity="0.1"/>
<circle cx="7" cy="410" r="7" fill="#D9D9D9" fill-opacity="0.1"/>
<circle cx="7" cy="441" r="7" fill="#D9D9D9" fill-opacity="0.1"/>
<circle cx="7" cy="472" r="7" fill="#D9D9D9" fill-opacity="0.1"/>
<circle cx="7" cy="503" r="7" fill="#D9D9D9" fill-opacity="0.1"/>
<circle cx="7" cy="534" r="7" fill="#D9D9D9" fill-opacity="0.1"/>
<circle cx="42" cy="7" r="7" fill="#D9D9D9" fill-opacity="0.1"/>
<circle cx="42" cy="38" r="7" fill="#D9D9D9" fill-opacity="0.1"/>
<circle cx="42" cy="69" r="7" fill="#D9D9D9" fill-opacity="0.1"/>
<circle cx="42" cy="100" r="7" fill="#D9D9D9" fill-opacity="0.1"/>
<circle cx="42" cy="131" r="7" fill="#D9D9D9" fill-opacity="0.1"/>
<circle cx="42" cy="162" r="7" fill="#D9D9D9" fill-opacity="0.1"/>
<circle cx="42" cy="193" r="7" fill="#D9D9D9" fill-opacity="0.1"/>
<circle cx="42" cy="224" r="7" fill="#D9D9D9" fill-opacity="0.1"/>
<circle cx="42" cy="255" r="7" fill="#D9D9D9" fill-opacity="0.1"/>
<circle cx="42" cy="286" r="7" fill="#D9D9D9" fill-opacity="0.1"/>
<circle cx="42" cy="317" r="7" fill="#D9D9D9" fill-opacity="0.1"/>
<circle cx="42" cy="348" r="7" fill="#D9D9D9" fill-opacity="0.1"/>
<circle cx="42" cy="379" r="7" fill="#D9D9D9" fill-opacity="0.1"/>
<circle cx="42" cy="410" r="7" fill="#D9D9D9" fill-opacity="0.1"/>
<circle cx="42" cy="441" r="7" fill="#D9D9D9" fill-opacity="0.1"/>
<circle cx="42" cy="472" r="7" fill="#D9D9D9" fill-opacity="0.1"/>
<circle cx="42" cy="503" r="7" fill="#D9D9D9" fill-opacity="0.1"/>
<circle cx="42" cy="534" r="7" fill="#D9D9D9" fill-opacity="0.1"/>
<circle cx="77" cy="7" r="7" fill="#D9D9D9" fill-opacity="0.1"/>
<circle cx="77" cy="38" r="7" fill="#D9D9D9" fill-opacity="0.1"/>
<circle cx="77" cy="69" r="7" fill="#D9D9D9" fill-opacity="0.1"/>
<circle cx="77" cy="100" r="7" fill="#D9D9D9" fill-opacity="0.1"/>
<circle cx="77" cy="131" r="7" fill="#D9D9D9" fill-opacity="0.1"/>
<circle cx="77" cy="162" r="7" fill="#D9D9D9" fill-opacity="0.1"/>
<circle cx="77" cy="193" r="7" fill="#D9D9D9" fill-opacity="0.1"/>
<circle cx="77" cy="224" r="7" fill="#D9D9D9" fill-opacity="0.1"/>
<circle cx="77" cy="255" r="7" fill="#D9D9D9" fill-opacity="0.1"/>
<circle cx="77" cy="286" r="7" fill="#D9D9D9" fill-opacity="0.1"/>
<circle cx="77" cy="317" r="7" fill="#D9D9D9" fill-opacity="0.1"/>
<circle cx="77" cy="348" r="7" fill="#D9D9D9" fill-opacity="0.1"/>
<circle cx="77" cy="379" r="7" fill="#D9D9D9" fill-opacity="0.1"/>
<circle cx="77" cy="410" r="7" fill="#D9D9D9" fill-opacity="0.1"/>
<circle cx="77" cy="441" r="7" fill="#D9D9D9" fill-opacity="0.1"/>
<circle cx="77" cy="472" r="7" fill="#D9D9D9" fill-opacity="0.1"/>
<circle cx="77" cy="503" r="7" fill="#D9D9D9" fill-opacity="0.1"/>
<circle cx="77" cy="534" r="7" fill="#D9D9D9" fill-opacity="0.1"/>
<circle cx="112" cy="7" r="7" fill="#D9D9D9" fill-opacity="0.1"/>
<circle cx="112" cy="38" r="7" fill="#D9D9D9" fill-opacity="0.1"/>
<circle cx="112" cy="69" r="7" fill="#D9D9D9" fill-opacity="0.1"/>
<circle cx="112" cy="100" r="7" fill="#D9D9D9" fill-opacity="0.1"/>
<circle cx="112" cy="131" r="7" fill="#D9D9D9" fill-opacity="0.1"/>
<circle cx="112" cy="162" r="7" fill="#D9D9D9" fill-opacity="0.1"/>
<circle cx="112" cy="193" r="7" fill="#D9D9D9" fill-opacity="0.1"/>
<circle cx="112" cy="224" r="7" fill="#D9D9D9" fill-opacity="0.1"/>
<circle cx="112" cy="255" r="7" fill="#D9D9D9" fill-opacity="0.1"/>
<circle cx="112" cy="286" r="7" fill="#D9D9D9" fill-opacity="0.1"/>
<circle cx="112" cy="317" r="7" fill="#D9D9D9" fill-opacity="0.1"/>
<circle cx="112" cy="348" r="7" fill="#D9D9D9" fill-opacity="0.1"/>
<circle cx="112" cy="379" r="7" fill="#D9D9D9" fill-opacity="0.1"/>
<circle cx="112" cy="410" r="7" fill="#D9D9D9" fill-opacity="0.1"/>
<circle cx="112" cy="441" r="7" fill="#D9D9D9" fill-opacity="0.1"/>
<circle cx="112" cy="472" r="7" fill="#D9D9D9" fill-opacity="0.1"/>
<circle cx="112" cy="503" r="7" fill="#D9D9D9" fill-opacity="0.1"/>
<circle cx="112" cy="534" r="7" fill="#D9D9D9" fill-opacity="0.1"/>
<circle cx="147" cy="7" r="7" fill="#D9D9D9" fill-opacity="0.1"/>
<circle cx="147" cy="38" r="7" fill="#D9D9D9" fill-opacity="0.1"/>
<circle cx="147" cy="69" r="7" fill="#D9D9D9" fill-opacity="0.1"/>
<circle cx="147" cy="100" r="7" fill="#D9D9D9" fill-opacity="0.1"/>
<circle cx="147" cy="131" r="7" fill="#D9D9D9" fill-opacity="0.1"/>
<circle cx="147" cy="162" r="7" fill="#D9D9D9" fill-opacity="0.1"/>
<circle cx="147" cy="193" r="7" fill="#D9D9D9" fill-opacity="0.1"/>
<circle cx="147" cy="224" r="7" fill="#D9D9D9" fill-opacity="0.1"/>
<circle cx="147" cy="255" r="7" fill="#D9D9D9" fill-opacity="0.1"/>
<circle cx="147" cy="286" r="7" fill="#D9D9D9" fill-opacity="0.1"/>
<circle cx="147" cy="317" r="7" fill="#D9D9D9" fill-opacity="0.1"/>
<circle cx="147" cy="348" r="7" fill="#D9D9D9" fill-opacity="0.1"/>
<circle cx="147" cy="379" r="7" fill="#D9D9D9" fill-opacity="0.1"/>
<circle cx="147" cy="410" r="7" fill="#D9D9D9" fill-opacity="0.1"/>
<circle cx="147" cy="441" r="7" fill="#D9D9D9" fill-opacity="0.1"/>
<circle cx="147" cy="472" r="7" fill="#D9D9D9" fill-opacity="0.1"/>
<circle cx="147" cy="503" r="7" fill="#D9D9D9" fill-opacity="0.1"/>
<circle cx="147" cy="534" r="7" fill="#D9D9D9" fill-opacity="0.1"/>
<circle cx="182" cy="7" r="7" fill="#D9D9D9" fill-opacity="0.1"/>
<circle cx="182" cy="38" r="7" fill="#D9D9D9" fill-opacity="0.1"/>
<circle cx="182" cy="69" r="7" fill="#D9D9D9" fill-opacity="0.1"/>
<circle cx="182" cy="100" r="7" fill="#D9D9D9" fill-opacity="0.1"/>
<circle cx="182" cy="131" r="7" fill="#D9D9D9" fill-opacity="0.1"/>
<circle cx="182" cy="162" r="7" fill="#D9D9D9" fill-opacity="0.1"/>
<circle cx="182" cy="193" r="7" fill="#D9D9D9" fill-opacity="0.1"/>
<circle cx="182" cy="224" r="7" fill="#D9D9D9" fill-opacity="0.1"/>
<circle cx="182" cy="255" r="7" fill="#D9D9D9" fill-opacity="0.1"/>
<circle cx="182" cy="286" r="7" fill="#D9D9D9" fill-opacity="0.1"/>
<circle cx="182" cy="317" r="7" fill="#D9D9D9" fill-opacity="0.1"/>
<circle cx="182" cy="348" r="7" fill="#D9D9D9" fill-opacity="0.1"/>
<circle cx="182" cy="379" r="7" fill="#D9D9D9" fill-opacity="0.1"/>
<circle cx="182" cy="410" r="7" fill="#D9D9D9" fill-opacity="0.1"/>
<circle cx="182" cy="441" r="7" fill="#D9D9D9" fill-opacity="0.1"/>
<circle cx="182" cy="472" r="7" fill="#D9D9D9" fill-opacity="0.1"/>
<circle cx="182" cy="503" r="7" fill="#D9D9D9" fill-opacity="0.1"/>
<circle cx="182" cy="534" r="7" fill="#D9D9D9" fill-opacity="0.1"/>
<circle cx="217" cy="7" r="7" fill="#D9D9D9" fill-opacity="0.1"/>
<circle cx="217" cy="38" r="7" fill="#D9D9D9" fill-opacity="0.1"/>
<circle cx="217" cy="69" r="7" fill="#D9D9D9" fill-opacity="0.1"/>
<circle cx="217" cy="100" r="7" fill="#D9D9D9" fill-opacity="0.1"/>
<circle cx="217" cy="131" r="7" fill="#D9D9D9" fill-opacity="0.1"/>
<circle cx="217" cy="162" r="7" fill="#D9D9D9" fill-opacity="0.1"/>
<circle cx="217" cy="193" r="7" fill="#D9D9D9" fill-opacity="0.1"/>
<circle cx="217" cy="224" r="7" fill="#D9D9D9" fill-opacity="0.1"/>
<circle cx="217" cy="255" r="7" fill="#D9D9D9" fill-opacity="0.1"/>
<circle cx="217" cy="286" r="7" fill="#D9D9D9" fill-opacity="0.1"/>
<circle cx="217" cy="317" r="7" fill="#D9D9D9" fill-opacity="0.1"/>
<circle cx="217" cy="348" r="7" fill="#D9D9D9" fill-opacity="0.1"/>
<circle cx="217" cy="379" r="7" fill="#D9D9D9" fill-opacity="0.1"/>
<circle cx="217" cy="410" r="7" fill="#D9D9D9" fill-opacity="0.1"/>
<circle cx="217" cy="441" r="7" fill="#D9D9D9" fill-opacity="0.1"/>
<circle cx="217" cy="472" r="7" fill="#D9D9D9" fill-opacity="0.1"/>
<circle cx="217" cy="503" r="7" fill="#D9D9D9" fill-opacity="0.1"/>
<circle cx="217" cy="534" r="7" fill="#D9D9D9" fill-opacity="0.1"/>
<circle cx="252" cy="7" r="7" fill="#D9D9D9" fill-opacity="0.1"/>
<circle cx="252" cy="38" r="7" fill="#D9D9D9" fill-opacity="0.1"/>
<circle cx="252" cy="69" r="7" fill="#D9D9D9" fill-opacity="0.1"/>
<circle cx="252" cy="100" r="7" fill="#D9D9D9" fill-opacity="0.1"/>
<circle cx="252" cy="131" r="7" fill="#D9D9D9" fill-opacity="0.1"/>
<circle cx="252" cy="162" r="7" fill="#D9D9D9" fill-opacity="0.1"/>
<circle cx="252" cy="193" r="7" fill="#D9D9D9" fill-opacity="0.1"/>
<circle cx="252" cy="224" r="7" fill="#D9D9D9" fill-opacity="0.1"/>
<circle cx="252" cy="255" r="7" fill="#D9D9D9" fill-opacity="0.1"/>
<circle cx="252" cy="286" r="7" fill="#D9D9D9" fill-opacity="0.1"/>
<circle cx="252" cy="317" r="7" fill="#D9D9D9" fill-opacity="0.1"/>
<circle cx="252" cy="348" r="7" fill="#D9D9D9" fill-opacity="0.1"/>
<circle cx="252" cy="379" r="7" fill="#D9D9D9" fill-opacity="0.1"/>
<circle cx="252" cy="410" r="7" fill="#D9D9D9" fill-opacity="0.1"/>
<circle cx="252" cy="441" r="7" fill="#D9D9D9" fill-opacity="0.1"/>
<circle cx="252" cy="472" r="7" fill="#D9D9D9" fill-opacity="0.1"/>
<circle cx="252" cy="503" r="7" fill="#D9D9D9" fill-opacity="0.1"/>
<circle cx="252" cy="534" r="7" fill="#D9D9D9" fill-opacity="0.1"/>
<circle cx="287" cy="7" r="7" fill="#D9D9D9" fill-opacity="0.1"/>
<circle cx="287" cy="38" r="7" fill="#D9D9D9" fill-opacity="0.1"/>
<circle cx="287" cy="69" r="7" fill="#D9D9D9" fill-opacity="0.1"/>
<circle cx="287" cy="100" r="7" fill="#D9D9D9" fill-opacity="0.1"/>
<circle cx="287" cy="131" r="7" fill="#D9D9D9" fill-opacity="0.1"/>
<circle cx="287" cy="162" r="7" fill="#D9D9D9" fill-opacity="0.1"/>
<circle cx="287" cy="193" r="7" fill="#D9D9D9" fill-opacity="0.1"/>
<circle cx="287" cy="224" r="7" fill="#D9D9D9" fill-opacity="0.1"/>
<circle cx="287" cy="255" r="7" fill="#D9D9D9" fill-opacity="0.1"/>
<circle cx="287" cy="286" r="7" fill="#D9D9D9" fill-opacity="0.1"/>
<circle cx="287" cy="317" r="7" fill="#D9D9D9" fill-opacity="0.1"/>
<circle cx="287" cy="348" r="7" fill="#D9D9D9" fill-opacity="0.1"/>
<circle cx="287" cy="379" r="7" fill="#D9D9D9" fill-opacity="0.1"/>
<circle cx="287" cy="410" r="7" fill="#D9D9D9" fill-opacity="0.1"/>
<circle cx="287" cy="441" r="7" fill="#D9D9D9" fill-opacity="0.1"/>
<circle cx="287" cy="472" r="7" fill="#D9D9D9" fill-opacity="0.1"/>
<circle cx="287" cy="503" r="7" fill="#D9D9D9" fill-opacity="0.1"/>
<circle cx="287" cy="534" r="7" fill="#D9D9D9" fill-opacity="0.1"/>
<circle cx="322" cy="7" r="7" fill="#D9D9D9" fill-opacity="0.1"/>
<circle cx="322" cy="38" r="7" fill="#D9D9D9" fill-opacity="0.1"/>
<circle cx="322" cy="69" r="7" fill="#D9D9D9" fill-opacity="0.1"/>
<circle cx="322" cy="100" r="7" fill="#D9D9D9" fill-opacity="0.1"/>
<circle cx="322" cy="131" r="7" fill="#D9D9D9" fill-opacity="0.1"/>
<circle cx="322" cy="162" r="7" fill="#D9D9D9" fill-opacity="0.1"/>
<circle cx="322" cy="193" r="7" fill="#D9D9D9" fill-opacity="0.1"/>
<circle cx="322" cy="224" r="7" fill="#D9D9D9" fill-opacity="0.1"/>
<circle cx="322" cy="255" r="7" fill="#D9D9D9" fill-opacity="0.1"/>
<circle cx="322" cy="286" r="7" fill="#D9D9D9" fill-opacity="0.1"/>
<circle cx="322" cy="317" r="7" fill="#D9D9D9" fill-opacity="0.1"/>
<circle cx="322" cy="348" r="7" fill="#D9D9D9" fill-opacity="0.1"/>
<circle cx="322" cy="379" r="7" fill="#D9D9D9" fill-opacity="0.1"/>
<circle cx="322" cy="410" r="7" fill="#D9D9D9" fill-opacity="0.1"/>
<circle cx="322" cy="441" r="7" fill="#D9D9D9" fill-opacity="0.1"/>
<circle cx="322" cy="472" r="7" fill="#D9D9D9" fill-opacity="0.1"/>
<circle cx="322" cy="503" r="7" fill="#D9D9D9" fill-opacity="0.1"/>
<circle cx="322" cy="534" r="7" fill="#D9D9D9" fill-opacity="0.1"/>
<circle cx="357" cy="7" r="7" fill="#D9D9D9" fill-opacity="0.1"/>
<circle cx="357" cy="38" r="7" fill="#D9D9D9" fill-opacity="0.1"/>
<circle cx="357" cy="69" r="7" fill="#D9D9D9" fill-opacity="0.1"/>
<circle cx="357" cy="100" r="7" fill="#D9D9D9" fill-opacity="0.1"/>
<circle cx="357" cy="131" r="7" fill="#D9D9D9" fill-opacity="0.1"/>
<circle cx="357" cy="162" r="7" fill="#D9D9D9" fill-opacity="0.1"/>
<circle cx="357" cy="193" r="7" fill="#D9D9D9" fill-opacity="0.1"/>
<circle cx="357" cy="224" r="7" fill="#D9D9D9" fill-opacity="0.1"/>
<circle cx="357" cy="255" r="7" fill="#D9D9D9" fill-opacity="0.1"/>
<circle cx="357" cy="286" r="7" fill="#D9D9D9" fill-opacity="0.1"/>
<circle cx="357" cy="317" r="7" fill="#D9D9D9" fill-opacity="0.1"/>
<circle cx="357" cy="348" r="7" fill="#D9D9D9" fill-opacity="0.1"/>
<circle cx="357" cy="379" r="7" fill="#D9D9D9" fill-opacity="0.1"/>
<circle cx="357" cy="410" r="7" fill="#D9D9D9" fill-opacity="0.1"/>
<circle cx="357" cy="441" r="7" fill="#D9D9D9" fill-opacity="0.1"/>
<circle cx="357" cy="472" r="7" fill="#D9D9D9" fill-opacity="0.1"/>
<circle cx="357" cy="503" r="7" fill="#D9D9D9" fill-opacity="0.1"/>
<circle cx="357" cy="534" r="7" fill="#D9D9D9" fill-opacity="0.1"/>
<circle cx="392" cy="7" r="7" fill="#D9D9D9" fill-opacity="0.1"/>
<circle cx="392" cy="38" r="7" fill="#D9D9D9" fill-opacity="0.1"/>
<circle cx="392" cy="69" r="7" fill="#D9D9D9" fill-opacity="0.1"/>
<circle cx="392" cy="100" r="7" fill="#D9D9D9" fill-opacity="0.1"/>
<circle cx="392" cy="131" r="7" fill="#D9D9D9" fill-opacity="0.1"/>
<circle cx="392" cy="162" r="7" fill="#D9D9D9" fill-opacity="0.1"/>
<circle cx="392" cy="193" r="7" fill="#D9D9D9" fill-opacity="0.1"/>
<circle cx="392" cy="224" r="7" fill="#D9D9D9" fill-opacity="0.1"/>
<circle cx="392" cy="255" r="7" fill="#D9D9D9" fill-opacity="0.1"/>
<circle cx="392" cy="286" r="7" fill="#D9D9D9" fill-opacity="0.1"/>
<circle cx="392" cy="317" r="7" fill="#D9D9D9" fill-opacity="0.1"/>
<circle cx="392" cy="348" r="7" fill="#D9D9D9" fill-opacity="0.1"/>
<circle cx="392" cy="379" r="7" fill="#D9D9D9" fill-opacity="0.1"/>
<circle cx="392" cy="410" r="7" fill="#D9D9D9" fill-opacity="0.1"/>
<circle cx="392" cy="441" r="7" fill="#D9D9D9" fill-opacity="0.1"/>
<circle cx="392" cy="472" r="7" fill="#D9D9D9" fill-opacity="0.1"/>
<circle cx="392" cy="503" r="7" fill="#D9D9D9" fill-opacity="0.1"/>
<circle cx="392" cy="534" r="7" fill="#D9D9D9" fill-opacity="0.1"/>
<circle cx="427" cy="7" r="7" fill="#D9D9D9" fill-opacity="0.1"/>
<circle cx="427" cy="38" r="7" fill="#D9D9D9" fill-opacity="0.1"/>
<circle cx="427" cy="69" r="7" fill="#D9D9D9" fill-opacity="0.1"/>
<circle cx="427" cy="100" r="7" fill="#D9D9D9" fill-opacity="0.1"/>
<circle cx="427" cy="131" r="7" fill="#D9D9D9" fill-opacity="0.1"/>
<circle cx="427" cy="162" r="7" fill="#D9D9D9" fill-opacity="0.1"/>
<circle cx="427" cy="193" r="7" fill="#D9D9D9" fill-opacity="0.1"/>
<circle cx="427" cy="224" r="7" fill="#D9D9D9" fill-opacity="0.1"/>
<circle cx="427" cy="255" r="7" fill="#D9D9D9" fill-opacity="0.1"/>
<circle cx="427" cy="286" r="7" fill="#D9D9D9" fill-opacity="0.1"/>
<circle cx="427" cy="317" r="7" fill="#D9D9D9" fill-opacity="0.1"/>
<circle cx="427" cy="348" r="7" fill="#D9D9D9" fill-opacity="0.1"/>
<circle cx="427" cy="379" r="7" fill="#D9D9D9" fill-opacity="0.1"/>
<circle cx="427" cy="410" r="7" fill="#D9D9D9" fill-opacity="0.1"/>
<circle cx="427" cy="441" r="7" fill="#D9D9D9" fill-opacity="0.1"/>
<circle cx="427" cy="472" r="7" fill="#D9D9D9" fill-opacity="0.1"/>
<circle cx="427" cy="503" r="7" fill="#D9D9D9" fill-opacity="0.1"/>
<circle cx="427" cy="534" r="7" fill="#D9D9D9" fill-opacity="0.1"/>
<circle cx="462" cy="7" r="7" fill="#D9D9D9" fill-opacity="0.1"/>
<circle cx="462" cy="38" r="7" fill="#D9D9D9" fill-opacity="0.1"/>
<circle cx="462" cy="69" r="7" fill="#D9D9D9" fill-opacity="0.1"/>
<circle cx="462" cy="100" r="7" fill="#D9D9D9" fill-opacity="0.1"/>
<circle cx="462" cy="131" r="7" fill="#D9D9D9" fill-opacity="0.1"/>
<circle cx="462" cy="162" r="7" fill="#D9D9D9" fill-opacity="0.1"/>
<circle cx="462" cy="193" r="7" fill="#D9D9D9" fill-opacity="0.1"/>
<circle cx="462" cy="224" r="7" fill="#D9D9D9" fill-opacity="0.1"/>
<circle cx="462" cy="255" r="7" fill="#D9D9D9" fill-opacity="0.1"/>
<circle cx="462" cy="286" r="7" fill="#D9D9D9" fill-opacity="0.1"/>
<circle cx="462" cy="317" r="7" fill="#D9D9D9" fill-opacity="0.1"/>
<circle cx="462" cy="348" r="7" fill="#D9D9D9" fill-opacity="0.1"/>
<circle cx="462" cy="379" r="7" fill="#D9D9D9" fill-opacity="0.1"/>
<circle cx="462" cy="410" r="7" fill="#D9D9D9" fill-opacity="0.1"/>
<circle cx="462" cy="441" r="7" fill="#D9D9D9" fill-opacity="0.1"/>
<circle cx="462" cy="472" r="7" fill="#D9D9D9" fill-opacity="0.1"/>
<circle cx="462" cy="503" r="7" fill="#D9D9D9" fill-opacity="0.1"/>
<circle cx="462" cy="534" r="7" fill="#D9D9D9" fill-opacity="0.1"/>
<circle cx="497" cy="7" r="7" fill="#D9D9D9" fill-opacity="0.1"/>
<circle cx="497" cy="38" r="7" fill="#D9D9D9" fill-opacity="0.1"/>
<circle cx="497" cy="69" r="7" fill="#D9D9D9" fill-opacity="0.1"/>
<circle cx="497" cy="100" r="7" fill="#D9D9D9" fill-opacity="0.1"/>
<circle cx="497" cy="131" r="7" fill="#D9D9D9" fill-opacity="0.1"/>
<circle cx="497" cy="162" r="7" fill="#D9D9D9" fill-opacity="0.1"/>
<circle cx="497" cy="193" r="7" fill="#D9D9D9" fill-opacity="0.1"/>
<circle cx="497" cy="224" r="7" fill="#D9D9D9" fill-opacity="0.1"/>
<circle cx="497" cy="255" r="7" fill="#D9D9D9" fill-opacity="0.1"/>
<circle cx="497" cy="286" r="7" fill="#D9D9D9" fill-opacity="0.1"/>
<circle cx="497" cy="317" r="7" fill="#D9D9D9" fill-opacity="0.1"/>
<circle cx="497" cy="348" r="7" fill="#D9D9D9" fill-opacity="0.1"/>
<circle cx="497" cy="379" r="7" fill="#D9D9D9" fill-opacity="0.1"/>
<circle cx="497" cy="410" r="7" fill="#D9D9D9" fill-opacity="0.1"/>
<circle cx="497" cy="441" r="7" fill="#D9D9D9" fill-opacity="0.1"/>
<circle cx="497" cy="472" r="7" fill="#D9D9D9" fill-opacity="0.1"/>
<circle cx="497" cy="503" r="7" fill="#D9D9D9" fill-opacity="0.1"/>
<circle cx="497" cy="534" r="7" fill="#D9D9D9" fill-opacity="0.1"/>
<circle cx="532" cy="7" r="7" fill="#D9D9D9" fill-opacity="0.1"/>
<circle cx="532" cy="38" r="7" fill="#D9D9D9" fill-opacity="0.1"/>
<circle cx="532" cy="69" r="7" fill="#D9D9D9" fill-opacity="0.1"/>
<circle cx="532" cy="100" r="7" fill="#D9D9D9" fill-opacity="0.1"/>
<circle cx="532" cy="131" r="7" fill="#D9D9D9" fill-opacity="0.1"/>
<circle cx="532" cy="162" r="7" fill="#D9D9D9" fill-opacity="0.1"/>
<circle cx="532" cy="193" r="7" fill="#D9D9D9" fill-opacity="0.1"/>
<circle cx="532" cy="224" r="7" fill="#D9D9D9" fill-opacity="0.1"/>
<circle cx="532" cy="255" r="7" fill="#D9D9D9" fill-opacity="0.1"/>
<circle cx="532" cy="286" r="7" fill="#D9D9D9" fill-opacity="0.1"/>
<circle cx="532" cy="317" r="7" fill="#D9D9D9" fill-opacity="0.1"/>
<circle cx="532" cy="348" r="7" fill="#D9D9D9" fill-opacity="0.1"/>
<circle cx="532" cy="379" r="7" fill="#D9D9D9" fill-opacity="0.1"/>
<circle cx="532" cy="410" r="7" fill="#D9D9D9" fill-opacity="0.1"/>
<circle cx="532" cy="441" r="7" fill="#D9D9D9" fill-opacity="0.1"/>
<circle cx="532" cy="472" r="7" fill="#D9D9D9" fill-opacity="0.1"/>
<circle cx="532" cy="503" r="7" fill="#D9D9D9" fill-opacity="0.1"/>
<circle cx="532" cy="534" r="7" fill="#D9D9D9" fill-opacity="0.1"/>
<circle cx="567" cy="7" r="7" fill="#D9D9D9" fill-opacity="0.1"/>
<circle cx="567" cy="38" r="7" fill="#D9D9D9" fill-opacity="0.1"/>
<circle cx="567" cy="69" r="7" fill="#D9D9D9" fill-opacity="0.1"/>
<circle cx="567" cy="100" r="7" fill="#D9D9D9" fill-opacity="0.1"/>
<circle cx="567" cy="131" r="7" fill="#D9D9D9" fill-opacity="0.1"/>
<circle cx="567" cy="162" r="7" fill="#D9D9D9" fill-opacity="0.1"/>
<circle cx="567" cy="193" r="7" fill="#D9D9D9" fill-opacity="0.1"/>
<circle cx="567" cy="224" r="7" fill="#D9D9D9" fill-opacity="0.1"/>
<circle cx="567" cy="255" r="7" fill="#D9D9D9" fill-opacity="0.1"/>
<circle cx="567" cy="286" r="7" fill="#D9D9D9" fill-opacity="0.1"/>
<circle cx="567" cy="317" r="7" fill="#D9D9D9" fill-opacity="0.1"/>
<circle cx="567" cy="348" r="7" fill="#D9D9D9" fill-opacity="0.1"/>
<circle cx="567" cy="379" r="7" fill="#D9D9D9" fill-opacity="0.1"/>
<circle cx="567" cy="410" r="7" fill="#D9D9D9" fill-opacity="0.1"/>
<circle cx="567" cy="441" r="7" fill="#D9D9D9" fill-opacity="0.1"/>
<circle cx="567" cy="472" r="7" fill="#D9D9D9" fill-opacity="0.1"/>
<circle cx="567" cy="503" r="7" fill="#D9D9D9" fill-opacity="0.1"/>
<circle cx="567" cy="534" r="7" fill="#D9D9D9" fill-opacity="0.1"/>
<circle cx="602" cy="7" r="7" fill="#D9D9D9" fill-opacity="0.1"/>
<circle cx="602" cy="38" r="7" fill="#D9D9D9" fill-opacity="0.1"/>
<circle cx="602" cy="69" r="7" fill="#D9D9D9" fill-opacity="0.1"/>
<circle cx="602" cy="100" r="7" fill="#D9D9D9" fill-opacity="0.1"/>
<circle cx="602" cy="131" r="7" fill="#D9D9D9" fill-opacity="0.1"/>
<circle cx="602" cy="162" r="7" fill="#D9D9D9" fill-opacity="0.1"/>
<circle cx="602" cy="193" r="7" fill="#D9D9D9" fill-opacity="0.1"/>
<circle cx="602" cy="224" r="7" fill="#D9D9D9" fill-opacity="0.1"/>
<circle cx="602" cy="255" r="7" fill="#D9D9D9" fill-opacity="0.1"/>
<circle cx="602" cy="286" r="7" fill="#D9D9D9" fill-opacity="0.1"/>
<circle cx="602" cy="317" r="7" fill="#D9D9D9" fill-opacity="0.1"/>
<circle cx="602" cy="348" r="7" fill="#D9D9D9" fill-opacity="0.1"/>
<circle cx="602" cy="379" r="7" fill="#D9D9D9" fill-opacity="0.1"/>
<circle cx="602" cy="410" r="7" fill="#D9D9D9" fill-opacity="0.1"/>
<circle cx="602" cy="441" r="7" fill="#D9D9D9" fill-opacity="0.1"/>
<circle cx="602" cy="472" r="7" fill="#D9D9D9" fill-opacity="0.1"/>
<circle cx="602" cy="503" r="7" fill="#D9D9D9" fill-opacity="0.1"/>
<circle cx="602" cy="534" r="7" fill="#D9D9D9" fill-opacity="0.1"/>
<circle cx="637" cy="7" r="7" fill="#D9D9D9" fill-opacity="0.1"/>
<circle cx="637" cy="38" r="7" fill="#D9D9D9" fill-opacity="0.1"/>
<circle cx="637" cy="69" r="7" fill="#D9D9D9" fill-opacity="0.1"/>
<circle cx="637" cy="100" r="7" fill="#D9D9D9" fill-opacity="0.1"/>
<circle cx="637" cy="131" r="7" fill="#D9D9D9" fill-opacity="0.1"/>
<circle cx="637" cy="162" r="7" fill="#D9D9D9" fill-opacity="0.1"/>
<circle cx="637" cy="193" r="7" fill="#D9D9D9" fill-opacity="0.1"/>
<circle cx="637" cy="224" r="7" fill="#D9D9D9" fill-opacity="0.1"/>
<circle cx="637" cy="255" r="7" fill="#D9D9D9" fill-opacity="0.1"/>
<circle cx="637" cy="286" r="7" fill="#D9D9D9" fill-opacity="0.1"/>
<circle cx="637" cy="317" r="7" fill="#D9D9D9" fill-opacity="0.1"/>
<circle cx="637" cy="348" r="7" fill="#D9D9D9" fill-opacity="0.1"/>
<circle cx="637" cy="379" r="7" fill="#D9D9D9" fill-opacity="0.1"/>
<circle cx="637" cy="410" r="7" fill="#D9D9D9" fill-opacity="0.1"/>
<circle cx="637" cy="441" r="7" fill="#D9D9D9" fill-opacity="0.1"/>
<circle cx="637" cy="472" r="7" fill="#D9D9D9" fill-opacity="0.1"/>
<circle cx="637" cy="503" r="7" fill="#D9D9D9" fill-opacity="0.1"/>
<circle cx="637" cy="534" r="7" fill="#D9D9D9" fill-opacity="0.1"/>
<circle cx="672" cy="7" r="7" fill="#D9D9D9" fill-opacity="0.1"/>
<circle cx="672" cy="38" r="7" fill="#D9D9D9" fill-opacity="0.1"/>
<circle cx="672" cy="69" r="7" fill="#D9D9D9" fill-opacity="0.1"/>
<circle cx="672" cy="100" r="7" fill="#D9D9D9" fill-opacity="0.1"/>
<circle cx="672" cy="131" r="7" fill="#D9D9D9" fill-opacity="0.1"/>
<circle cx="672" cy="162" r="7" fill="#D9D9D9" fill-opacity="0.1"/>
<circle cx="672" cy="193" r="7" fill="#D9D9D9" fill-opacity="0.1"/>
<circle cx="672" cy="224" r="7" fill="#D9D9D9" fill-opacity="0.1"/>
<circle cx="672" cy="255" r="7" fill="#D9D9D9" fill-opacity="0.1"/>
<circle cx="672" cy="286" r="7" fill="#D9D9D9" fill-opacity="0.1"/>
<circle cx="672" cy="317" r="7" fill="#D9D9D9" fill-opacity="0.1"/>
<circle cx="672" cy="348" r="7" fill="#D9D9D9" fill-opacity="0.1"/>
<circle cx="672" cy="379" r="7" fill="#D9D9D9" fill-opacity="0.1"/>
<circle cx="672" cy="410" r="7" fill="#D9D9D9" fill-opacity="0.1"/>
<circle cx="672" cy="441" r="7" fill="#D9D9D9" fill-opacity="0.1"/>
<circle cx="672" cy="472" r="7" fill="#D9D9D9" fill-opacity="0.1"/>
<circle cx="672" cy="503" r="7" fill="#D9D9D9" fill-opacity="0.1"/>
<circle cx="672" cy="534" r="7" fill="#D9D9D9" fill-opacity="0.1"/>
<circle cx="707" cy="7" r="7" fill="#D9D9D9" fill-opacity="0.1"/>
<circle cx="707" cy="38" r="7" fill="#D9D9D9" fill-opacity="0.1"/>
<circle cx="707" cy="69" r="7" fill="#D9D9D9" fill-opacity="0.1"/>
<circle cx="707" cy="100" r="7" fill="#D9D9D9" fill-opacity="0.1"/>
<circle cx="707" cy="131" r="7" fill="#D9D9D9" fill-opacity="0.1"/>
<circle cx="707" cy="162" r="7" fill="#D9D9D9" fill-opacity="0.1"/>
<circle cx="707" cy="193" r="7" fill="#D9D9D9" fill-opacity="0.1"/>
<circle cx="707" cy="224" r="7" fill="#D9D9D9" fill-opacity="0.1"/>
<circle cx="707" cy="255" r="7" fill="#D9D9D9" fill-opacity="0.1"/>
<circle cx="707" cy="286" r="7" fill="#D9D9D9" fill-opacity="0.1"/>
<circle cx="707" cy="317" r="7" fill="#D9D9D9" fill-opacity="0.1"/>
<circle cx="707" cy="348" r="7" fill="#D9D9D9" fill-opacity="0.1"/>
<circle cx="707" cy="379" r="7" fill="#D9D9D9" fill-opacity="0.1"/>
<circle cx="707" cy="410" r="7" fill="#D9D9D9" fill-opacity="0.1"/>
<circle cx="707" cy="441" r="7" fill="#D9D9D9" fill-opacity="0.1"/>
<circle cx="707" cy="472" r="7" fill="#D9D9D9" fill-opacity="0.1"/>
<circle cx="707" cy="503" r="7" fill="#D9D9D9" fill-opacity="0.1"/>
<circle cx="707" cy="534" r="7" fill="#D9D9D9" fill-opacity="0.1"/>
<circle cx="742" cy="7" r="7" fill="#D9D9D9" fill-opacity="0.1"/>
<circle cx="742" cy="38" r="7" fill="#D9D9D9" fill-opacity="0.1"/>
<circle cx="742" cy="69" r="7" fill="#D9D9D9" fill-opacity="0.1"/>
<circle cx="742" cy="100" r="7" fill="#D9D9D9" fill-opacity="0.1"/>
<circle cx="742" cy="131" r="7" fill="#D9D9D9" fill-opacity="0.1"/>
<circle cx="742" cy="162" r="7" fill="#D9D9D9" fill-opacity="0.1"/>
<circle cx="742" cy="193" r="7" fill="#D9D9D9" fill-opacity="0.1"/>
<circle cx="742" cy="224" r="7" fill="#D9D9D9" fill-opacity="0.1"/>
<circle cx="742" cy="255" r="7" fill="#D9D9D9" fill-opacity="0.1"/>
<circle cx="742" cy="286" r="7" fill="#D9D9D9" fill-opacity="0.1"/>
<circle cx="742" cy="317" r="7" fill="#D9D9D9" fill-opacity="0.1"/>
<circle cx="742" cy="348" r="7" fill="#D9D9D9" fill-opacity="0.1"/>
<circle cx="742" cy="379" r="7" fill="#D9D9D9" fill-opacity="0.1"/>
<circle cx="742" cy="410" r="7" fill="#D9D9D9" fill-opacity="0.1"/>
<circle cx="742" cy="441" r="7" fill="#D9D9D9" fill-opacity="0.1"/>
<circle cx="742" cy="472" r="7" fill="#D9D9D9" fill-opacity="0.1"/>
<circle cx="742" cy="503" r="7" fill="#D9D9D9" fill-opacity="0.1"/>
<circle cx="742" cy="534" r="7" fill="#D9D9D9" fill-opacity="0.1"/>
<circle cx="777" cy="7" r="7" fill="#D9D9D9" fill-opacity="0.1"/>
<circle cx="777" cy="38" r="7" fill="#D9D9D9" fill-opacity="0.1"/>
<circle cx="777" cy="69" r="7" fill="#D9D9D9" fill-opacity="0.1"/>
<circle cx="777" cy="100" r="7" fill="#D9D9D9" fill-opacity="0.1"/>
<circle cx="777" cy="131" r="7" fill="#D9D9D9" fill-opacity="0.1"/>
<circle cx="777" cy="162" r="7" fill="#D9D9D9" fill-opacity="0.1"/>
<circle cx="777" cy="193" r="7" fill="#D9D9D9" fill-opacity="0.1"/>
<circle cx="777" cy="224" r="7" fill="#D9D9D9" fill-opacity="0.1"/>
<circle cx="777" cy="255" r="7" fill="#D9D9D9" fill-opacity="0.1"/>
<circle cx="777" cy="286" r="7" fill="#D9D9D9" fill-opacity="0.1"/>
<circle cx="777" cy="317" r="7" fill="#D9D9D9" fill-opacity="0.1"/>
<circle cx="777" cy="348" r="7" fill="#D9D9D9" fill-opacity="0.1"/>
<circle cx="777" cy="379" r="7" fill="#D9D9D9" fill-opacity="0.1"/>
<circle cx="777" cy="410" r="7" fill="#D9D9D9" fill-opacity="0.1"/>
<circle cx="777" cy="441" r="7" fill="#D9D9D9" fill-opacity="0.1"/>
<circle cx="777" cy="472" r="7" fill="#D9D9D9" fill-opacity="0.1"/>
<circle cx="777" cy="503" r="7" fill="#D9D9D9" fill-opacity="0.1"/>
<circle cx="777" cy="534" r="7" fill="#D9D9D9" fill-opacity="0.1"/>
<circle cx="812" cy="7" r="7" fill="#D9D9D9" fill-opacity="0.1"/>
<circle cx="812" cy="38" r="7" fill="#D9D9D9" fill-opacity="0.1"/>
<circle cx="812" cy="69" r="7" fill="#D9D9D9" fill-opacity="0.1"/>
<circle cx="812" cy="100" r="7" fill="#D9D9D9" fill-opacity="0.1"/>
<circle cx="812" cy="131" r="7" fill="#D9D9D9" fill-opacity="0.1"/>
<circle cx="812" cy="162" r="7" fill="#D9D9D9" fill-opacity="0.1"/>
<circle cx="812" cy="193" r="7" fill="#D9D9D9" fill-opacity="0.1"/>
<circle cx="812" cy="224" r="7" fill="#D9D9D9" fill-opacity="0.1"/>
<circle cx="812" cy="255" r="7" fill="#D9D9D9" fill-opacity="0.1"/>
<circle cx="812" cy="286" r="7" fill="#D9D9D9" fill-opacity="0.1"/>
<circle cx="812" cy="317" r="7" fill="#D9D9D9" fill-opacity="0.1"/>
<circle cx="812" cy="348" r="7" fill="#D9D9D9" fill-opacity="0.1"/>
<circle cx="812" cy="379" r="7" fill="#D9D9D9" fill-opacity="0.1"/>
<circle cx="812" cy="410" r="7" fill="#D9D9D9" fill-opacity="0.1"/>
<circle cx="812" cy="441" r="7" fill="#D9D9D9" fill-opacity="0.1"/>
<circle cx="812" cy="472" r="7" fill="#D9D9D9" fill-opacity="0.1"/>
<circle cx="812" cy="503" r="7" fill="#D9D9D9" fill-opacity="0.1"/>
<circle cx="812" cy="534" r="7" fill="#D9D9D9" fill-opacity="0.1"/>
<circle cx="847" cy="7" r="7" fill="#D9D9D9" fill-opacity="0.1"/>
<circle cx="847" cy="38" r="7" fill="#D9D9D9" fill-opacity="0.1"/>
<circle cx="847" cy="69" r="7" fill="#D9D9D9" fill-opacity="0.1"/>
<circle cx="847" cy="100" r="7" fill="#D9D9D9" fill-opacity="0.1"/>
<circle cx="847" cy="131" r="7" fill="#D9D9D9" fill-opacity="0.1"/>
<circle cx="847" cy="162" r="7" fill="#D9D9D9" fill-opacity="0.1"/>
<circle cx="847" cy="193" r="7" fill="#D9D9D9" fill-opacity="0.1"/>
<circle cx="847" cy="224" r="7" fill="#D9D9D9" fill-opacity="0.1"/>
<circle cx="847" cy="255" r="7" fill="#D9D9D9" fill-opacity="0.1"/>
<circle cx="847" cy="286" r="7" fill="#D9D9D9" fill-opacity="0.1"/>
<circle cx="847" cy="317" r="7" fill="#D9D9D9" fill-opacity="0.1"/>
<circle cx="847" cy="348" r="7" fill="#D9D9D9" fill-opacity="0.1"/>
<circle cx="847" cy="379" r="7" fill="#D9D9D9" fill-opacity="0.1"/>
<circle cx="847" cy="410" r="7" fill="#D9D9D9" fill-opacity="0.1"/>
<circle cx="847" cy="441" r="7" fill="#D9D9D9" fill-opacity="0.1"/>
<circle cx="847" cy="472" r="7" fill="#D9D9D9" fill-opacity="0.1"/>
<circle cx="847" cy="503" r="7" fill="#D9D9D9" fill-opacity="0.1"/>
<circle cx="847" cy="534" r="7" fill="#D9D9D9" fill-opacity="0.1"/>
<circle cx="882" cy="7" r="7" fill="#D9D9D9" fill-opacity="0.1"/>
<circle cx="882" cy="38" r="7" fill="#D9D9D9" fill-opacity="0.1"/>
<circle cx="882" cy="69" r="7" fill="#D9D9D9" fill-opacity="0.1"/>
<circle cx="882" cy="100" r="7" fill="#D9D9D9" fill-opacity="0.1"/>
<circle cx="882" cy="131" r="7" fill="#D9D9D9" fill-opacity="0.1"/>
<circle cx="882" cy="162" r="7" fill="#D9D9D9" fill-opacity="0.1"/>
<circle cx="882" cy="193" r="7" fill="#D9D9D9" fill-opacity="0.1"/>
<circle cx="882" cy="224" r="7" fill="#D9D9D9" fill-opacity="0.1"/>
<circle cx="882" cy="255" r="7" fill="#D9D9D9" fill-opacity="0.1"/>
<circle cx="882" cy="286" r="7" fill="#D9D9D9" fill-opacity="0.1"/>
<circle cx="882" cy="317" r="7" fill="#D9D9D9" fill-opacity="0.1"/>
<circle cx="882" cy="348" r="7" fill="#D9D9D9" fill-opacity="0.1"/>
<circle cx="882" cy="379" r="7" fill="#D9D9D9" fill-opacity="0.1"/>
<circle cx="882" cy="410" r="7" fill="#D9D9D9" fill-opacity="0.1"/>
<circle cx="882" cy="441" r="7" fill="#D9D9D9" fill-opacity="0.1"/>
<circle cx="882" cy="472" r="7" fill="#D9D9D9" fill-opacity="0.1"/>
<circle cx="882" cy="503" r="7" fill="#D9D9D9" fill-opacity="0.1"/>
<circle cx="882" cy="534" r="7" fill="#D9D9D9" fill-opacity="0.1"/>
<circle cx="917" cy="7" r="7" fill="#D9D9D9" fill-opacity="0.1"/>
<circle cx="917" cy="38" r="7" fill="#D9D9D9" fill-opacity="0.1"/>
<circle cx="917" cy="69" r="7" fill="#D9D9D9" fill-opacity="0.1"/>
<circle cx="917" cy="100" r="7" fill="#D9D9D9" fill-opacity="0.1"/>
<circle cx="917" cy="131" r="7" fill="#D9D9D9" fill-opacity="0.1"/>
<circle cx="917" cy="162" r="7" fill="#D9D9D9" fill-opacity="0.1"/>
<circle cx="917" cy="193" r="7" fill="#D9D9D9" fill-opacity="0.1"/>
<circle cx="917" cy="224" r="7" fill="#D9D9D9" fill-opacity="0.1"/>
<circle cx="917" cy="255" r="7" fill="#D9D9D9" fill-opacity="0.1"/>
<circle cx="917" cy="286" r="7" fill="#D9D9D9" fill-opacity="0.1"/>
<circle cx="917" cy="317" r="7" fill="#D9D9D9" fill-opacity="0.1"/>
<circle cx="917" cy="348" r="7" fill="#D9D9D9" fill-opacity="0.1"/>
<circle cx="917" cy="379" r="7" fill="#D9D9D9" fill-opacity="0.1"/>
<circle cx="917" cy="410" r="7" fill="#D9D9D9" fill-opacity="0.1"/>
<circle cx="917" cy="441" r="7" fill="#D9D9D9" fill-opacity="0.1"/>
<circle cx="917" cy="472" r="7" fill="#D9D9D9" fill-opacity="0.1"/>
<circle cx="917" cy="503" r="7" fill="#D9D9D9" fill-opacity="0.1"/>
<circle cx="917" cy="534" r="7" fill="#D9D9D9" fill-opacity="0.1"/>
<circle cx="952" cy="7" r="7" fill="#D9D9D9" fill-opacity="0.1"/>
<circle cx="952" cy="38" r="7" fill="#D9D9D9" fill-opacity="0.1"/>
<circle cx="952" cy="69" r="7" fill="#D9D9D9" fill-opacity="0.1"/>
<circle cx="952" cy="100" r="7" fill="#D9D9D9" fill-opacity="0.1"/>
<circle cx="952" cy="131" r="7" fill="#D9D9D9" fill-opacity="0.1"/>
<circle cx="952" cy="162" r="7" fill="#D9D9D9" fill-opacity="0.1"/>
<circle cx="952" cy="193" r="7" fill="#D9D9D9" fill-opacity="0.1"/>
<circle cx="952" cy="224" r="7" fill="#D9D9D9" fill-opacity="0.1"/>
<circle cx="952" cy="255" r="7" fill="#D9D9D9" fill-opacity="0.1"/>
<circle cx="952" cy="286" r="7" fill="#D9D9D9" fill-opacity="0.1"/>
<circle cx="952" cy="317" r="7" fill="#D9D9D9" fill-opacity="0.1"/>
<circle cx="952" cy="348" r="7" fill="#D9D9D9" fill-opacity="0.1"/>
<circle cx="952" cy="379" r="7" fill="#D9D9D9" fill-opacity="0.1"/>
<circle cx="952" cy="410" r="7" fill="#D9D9D9" fill-opacity="0.1"/>
<circle cx="952" cy="441" r="7" fill="#D9D9D9" fill-opacity="0.1"/>
<circle cx="952" cy="472" r="7" fill="#D9D9D9" fill-opacity="0.1"/>
<circle cx="952" cy="503" r="7" fill="#D9D9D9" fill-opacity="0.1"/>
<circle cx="952" cy="534" r="7" fill="#D9D9D9" fill-opacity="0.1"/>
<circle cx="987" cy="7" r="7" fill="#D9D9D9" fill-opacity="0.1"/>
<circle cx="987" cy="38" r="7" fill="#D9D9D9" fill-opacity="0.1"/>
<circle cx="987" cy="69" r="7" fill="#D9D9D9" fill-opacity="0.1"/>
<circle cx="987" cy="100" r="7" fill="#D9D9D9" fill-opacity="0.1"/>
<circle cx="987" cy="131" r="7" fill="#D9D9D9" fill-opacity="0.1"/>
<circle cx="987" cy="162" r="7" fill="#D9D9D9" fill-opacity="0.1"/>
<circle cx="987" cy="193" r="7" fill="#D9D9D9" fill-opacity="0.1"/>
<circle cx="987" cy="224" r="7" fill="#D9D9D9" fill-opacity="0.1"/>
<circle cx="987" cy="255" r="7" fill="#D9D9D9" fill-opacity="0.1"/>
<circle cx="987" cy="286" r="7" fill="#D9D9D9" fill-opacity="0.1"/>
<circle cx="987" cy="317" r="7" fill="#D9D9D9" fill-opacity="0.1"/>
<circle cx="987" cy="348" r="7" fill="#D9D9D9" fill-opacity="0.1"/>
<circle cx="987" cy="379" r="7" fill="#D9D9D9" fill-opacity="0.1"/>
<circle cx="987" cy="410" r="7" fill="#D9D9D9" fill-opacity="0.1"/>
<circle cx="987" cy="441" r="7" fill="#D9D9D9" fill-opacity="0.1"/>
<circle cx="987" cy="472" r="7" fill="#D9D9D9" fill-opacity="0.1"/>
<circle cx="987" cy="503" r="7" fill="#D9D9D9" fill-opacity="0.1"/>
<circle cx="987" cy="534" r="7" fill="#D9D9D9" fill-opacity="0.1"/>
<circle cx="1022" cy="7" r="7" fill="#D9D9D9" fill-opacity="0.1"/>
<circle cx="1022" cy="38" r="7" fill="#D9D9D9" fill-opacity="0.1"/>
<circle cx="1022" cy="69" r="7" fill="#D9D9D9" fill-opacity="0.1"/>
<circle cx="1022" cy="100" r="7" fill="#D9D9D9" fill-opacity="0.1"/>
<circle cx="1022" cy="131" r="7" fill="#D9D9D9" fill-opacity="0.1"/>
<circle cx="1022" cy="162" r="7" fill="#D9D9D9" fill-opacity="0.1"/>
<circle cx="1022" cy="193" r="7" fill="#D9D9D9" fill-opacity="0.1"/>
<circle cx="1022" cy="224" r="7" fill="#D9D9D9" fill-opacity="0.1"/>
<circle cx="1022" cy="255" r="7" fill="#D9D9D9" fill-opacity="0.1"/>
<circle cx="1022" cy="286" r="7" fill="#D9D9D9" fill-opacity="0.1"/>
<circle cx="1022" cy="317" r="7" fill="#D9D9D9" fill-opacity="0.1"/>
<circle cx="1022" cy="348" r="7" fill="#D9D9D9" fill-opacity="0.1"/>
<circle cx="1022" cy="379" r="7" fill="#D9D9D9" fill-opacity="0.1"/>
<circle cx="1022" cy="410" r="7" fill="#D9D9D9" fill-opacity="0.1"/>
<circle cx="1022" cy="441" r="7" fill="#D9D9D9" fill-opacity="0.1"/>
<circle cx="1022" cy="472" r="7" fill="#D9D9D9" fill-opacity="0.1"/>
<circle cx="1022" cy="503" r="7" fill="#D9D9D9" fill-opacity="0.1"/>
<circle cx="1022" cy="534" r="7" fill="#D9D9D9" fill-opacity="0.1"/>
<circle cx="1057" cy="7" r="7" fill="#D9D9D9" fill-opacity="0.1"/>
<circle cx="1057" cy="38" r="7" fill="#D9D9D9" fill-opacity="0.1"/>
<circle cx="1057" cy="69" r="7" fill="#D9D9D9" fill-opacity="0.1"/>
<circle cx="1057" cy="100" r="7" fill="#D9D9D9" fill-opacity="0.1"/>
<circle cx="1057" cy="131" r="7" fill="#D9D9D9" fill-opacity="0.1"/>
<circle cx="1057" cy="162" r="7" fill="#D9D9D9" fill-opacity="0.1"/>
<circle cx="1057" cy="193" r="7" fill="#D9D9D9" fill-opacity="0.1"/>
<circle cx="1057" cy="224" r="7" fill="#D9D9D9" fill-opacity="0.1"/>
<circle cx="1057" cy="255" r="7" fill="#D9D9D9" fill-opacity="0.1"/>
<circle cx="1057" cy="286" r="7" fill="#D9D9D9" fill-opacity="0.1"/>
<circle cx="1057" cy="317" r="7" fill="#D9D9D9" fill-opacity="0.1"/>
<circle cx="1057" cy="348" r="7" fill="#D9D9D9" fill-opacity="0.1"/>
<circle cx="1057" cy="379" r="7" fill="#D9D9D9" fill-opacity="0.1"/>
<circle cx="1057" cy="410" r="7" fill="#D9D9D9" fill-opacity="0.1"/>
<circle cx="1057" cy="441" r="7" fill="#D9D9D9" fill-opacity="0.1"/>
<circle cx="1057" cy="472" r="7" fill="#D9D9D9" fill-opacity="0.1"/>
<circle cx="1057" cy="503" r="7" fill="#D9D9D9" fill-opacity="0.1"/>
<circle cx="1057" cy="534" r="7" fill="#D9D9D9" fill-opacity="0.1"/>
<circle cx="1092" cy="7" r="7" fill="#D9D9D9" fill-opacity="0.1"/>
<circle cx="1092" cy="38" r="7" fill="#D9D9D9" fill-opacity="0.1"/>
<circle cx="1092" cy="69" r="7" fill="#D9D9D9" fill-opacity="0.1"/>
<circle cx="1092" cy="100" r="7" fill="#D9D9D9" fill-opacity="0.1"/>
<circle cx="1092" cy="131" r="7" fill="#D9D9D9" fill-opacity="0.1"/>
<circle cx="1092" cy="162" r="7" fill="#D9D9D9" fill-opacity="0.1"/>
<circle cx="1092" cy="193" r="7" fill="#D9D9D9" fill-opacity="0.1"/>
<circle cx="1092" cy="224" r="7" fill="#D9D9D9" fill-opacity="0.1"/>
<circle cx="1092" cy="255" r="7" fill="#D9D9D9" fill-opacity="0.1"/>
<circle cx="1092" cy="286" r="7" fill="#D9D9D9" fill-opacity="0.1"/>
<circle cx="1092" cy="317" r="7" fill="#D9D9D9" fill-opacity="0.1"/>
<circle cx="1092" cy="348" r="7" fill="#D9D9D9" fill-opacity="0.1"/>
<circle cx="1092" cy="379" r="7" fill="#D9D9D9" fill-opacity="0.1"/>
<circle cx="1092" cy="410" r="7" fill="#D9D9D9" fill-opacity="0.1"/>
<circle cx="1092" cy="441" r="7" fill="#D9D9D9" fill-opacity="0.1"/>
<circle cx="1092" cy="472" r="7" fill="#D9D9D9" fill-opacity="0.1"/>
<circle cx="1092" cy="503" r="7" fill="#D9D9D9" fill-opacity="0.1"/>
<circle cx="1092" cy="534" r="7" fill="#D9D9D9" fill-opacity="0.1"/>
<circle cx="1127" cy="7" r="7" fill="#D9D9D9" fill-opacity="0.1"/>
<circle cx="1127" cy="38" r="7" fill="#D9D9D9" fill-opacity="0.1"/>
<circle cx="1127" cy="69" r="7" fill="#D9D9D9" fill-opacity="0.1"/>
<circle cx="1127" cy="100" r="7" fill="#D9D9D9" fill-opacity="0.1"/>
<circle cx="1127" cy="131" r="7" fill="#D9D9D9" fill-opacity="0.1"/>
<circle cx="1127" cy="162" r="7" fill="#D9D9D9" fill-opacity="0.1"/>
<circle cx="1127" cy="193" r="7" fill="#D9D9D9" fill-opacity="0.1"/>
<circle cx="1127" cy="224" r="7" fill="#D9D9D9" fill-opacity="0.1"/>
<circle cx="1127" cy="255" r="7" fill="#D9D9D9" fill-opacity="0.1"/>
<circle cx="1127" cy="286" r="7" fill="#D9D9D9" fill-opacity="0.1"/>
<circle cx="1127" cy="317" r="7" fill="#D9D9D9" fill-opacity="0.1"/>
<circle cx="1127" cy="348" r="7" fill="#D9D9D9" fill-opacity="0.1"/>
<circle cx="1127" cy="379" r="7" fill="#D9D9D9" fill-opacity="0.1"/>
<circle cx="1127" cy="410" r="7" fill="#D9D9D9" fill-opacity="0.1"/>
<circle cx="1127" cy="441" r="7" fill="#D9D9D9" fill-opacity="0.1"/>
<circle cx="1127" cy="472" r="7" fill="#D9D9D9" fill-opacity="0.1"/>
<circle cx="1127" cy="503" r="7" fill="#D9D9D9" fill-opacity="0.1"/>
<circle cx="1127" cy="534" r="7" fill="#D9D9D9" fill-opacity="0.1"/>
</svg>
