<?xml version="1.0" encoding="iso-8859-1"?>
<!-- Uploaded to: SVG Repo, www.svgrepo.com, Generator: SVG Repo Mixer Tools -->
<svg xmlns="http://www.w3.org/2000/svg" xmlns:xlink="http://www.w3.org/1999/xlink" version="1.1" id="Layer_1"  viewBox="0 0 433.309 433.309" xml:space="preserve" width="512" height="512">
<g>
	<g>
		<g>
			<path style="fill:#FEDD3D;" d="M103.289,248.143c13.021,13.027,34.147,13.031,47.173-0.006     c13.034-13.021,13.029-34.15,0.004-47.171c-13.027-13.035-57.743-36.623-70.767-23.593     C66.663,190.402,90.254,235.114,103.289,248.143z"/>
			<path style="opacity:0.1;fill:#222222;" d="M79.699,177.373c-13.036,13.029,10.555,57.741,23.59,70.77     c13.021,13.027,34.147,13.031,47.173-0.006L79.699,177.373z"/>
			<path style="opacity:0.1;fill:#222222;" d="M150.466,200.966c-1.832-1.833-4.306-3.876-7.214-5.996     c-17.583,13.982-31.088,32.87-38.435,54.601c13.098,11.575,33.116,11.106,45.644-1.434     C163.496,235.116,163.491,213.986,150.466,200.966z"/>
		</g>
		<g>
			<path style="fill:#FEDD3D;" d="M330.018,248.143c-13.021,13.027-34.146,13.031-47.173-0.006     c-13.032-13.021-13.029-34.15-0.003-47.171c13.027-13.035,57.743-36.623,70.768-23.593     C366.645,190.402,343.055,235.114,330.018,248.143z"/>
			<path style="opacity:0.1;fill:#222222;" d="M353.609,177.373c13.035,13.029-10.555,57.741-23.592,70.77     c-13.021,13.027-34.146,13.031-47.173-0.006L353.609,177.373z"/>
			<path style="opacity:0.1;fill:#222222;" d="M282.842,200.966c1.832-1.833,4.305-3.876,7.214-5.996     c17.583,13.982,31.089,32.87,38.434,54.601c-13.098,11.575-33.116,11.106-45.646-1.434     C269.813,235.116,269.815,213.986,282.842,200.966z"/>
		</g>
		<g>
			<circle style="fill:#FEDD3D;" cx="216.653" cy="287.394" r="112.049"/>
			<path style="opacity:0.1;fill:#222222;" d="M216.654,175.345c-61.884,0-112.05,50.166-112.05,112.049     c0,61.882,50.166,112.048,112.05,112.048V175.345z"/>
			<path style="opacity:0.1;fill:#222222;" d="M324.878,258.295l-24.888-24.888l-41.669,41.667l-41.666-41.667l-41.667,41.667     l-41.668-41.667L108.428,258.3c-2.488,9.278-3.823,19.03-3.823,29.094c0,61.882,50.166,112.048,112.05,112.048     c61.881,0,112.048-50.166,112.048-112.048C328.702,277.329,327.366,267.575,324.878,258.295z"/>
		</g>
		<g>
			<path style="opacity:0.1;fill:#222222;" d="M216.654,175.345c-23.66,0-45.603,7.34-63.689,19.857     c17.316,14.266,39.501,22.835,63.689,22.835c24.185,0,46.371-8.569,63.686-22.835     C262.256,182.685,240.312,175.345,216.654,175.345z"/>
			<g>
				<g>
					<g>
						<polygon style="fill:#D66B35;" points="296.495,117.81 330.17,117.81 296.495,146.752       "/>
					</g>
					<polygon style="fill:#FF7F3F;" points="296.495,117.81 330.17,117.81 296.495,88.867      "/>
				</g>
				<path style="fill:#FEDD3D;" d="M236.774,10.702c0-5.91-4.791-10.702-10.703-10.702c-5.909,0-10.701,4.792-10.701,10.702      c0,5.909,4.792,23.972,10.701,23.972C231.983,34.674,236.774,16.611,236.774,10.702z"/>
				<path style="fill:#FEDD3D;" d="M210.969,9.106c-4.179-4.18-10.956-4.181-15.135,0c-4.18,4.179-4.18,10.956,0,15.135      c4.179,4.181,20.338,13.563,24.517,9.383C224.533,29.445,215.149,13.285,210.969,9.106z"/>
				<circle style="fill:#FEDD3D;" cx="216.654" cy="117.81" r="89.361"/>
				<path style="opacity:0.1;fill:#222222;" d="M216.654,28.448c-49.354,0-89.361,40.007-89.361,89.361      c0,49.352,40.008,89.36,89.361,89.36V28.448z"/>
				<circle style="fill:#333E48;" cx="265.089" cy="94.328" r="8.625"/>
			</g>
		</g>
	</g>
	<g>
		<path style="fill:#D8D2C4;" d="M299.99,241.195l-41.669,41.667l-41.666-41.667l-41.667,41.667l-41.668-41.667l-41.667,41.667    l-33.735-33.736c-0.977,8.489-1.492,16.532-1.492,23.954c0,88.494,71.736,160.228,160.229,160.228    c88.49,0,160.229-71.734,160.229-160.228c0-7.422-0.515-15.464-1.492-23.951l-33.735,33.733L299.99,241.195z"/>
		<path style="opacity:0.1;fill:#222222;" d="M174.988,282.862l-41.668-41.667l-41.667,41.667l-33.735-33.736    c-0.977,8.489-1.492,16.532-1.492,23.954c0,88.494,71.736,160.228,160.229,160.228c0,0,0,0,0.001,0V241.195L174.988,282.862z"/>
	</g>
</g>















</svg>